<svg width="27" height="31" viewBox="0 0 27 31" fill="none" xmlns="http://www.w3.org/2000/svg">
<path d="M19.7074 30.2264V17.8705H16.4766C16.5184 18.8886 16.1947 19.7596 15.3806 20.4034C14.8664 20.8169 14.2194 21.0296 13.5601 21.0019C11.9897 20.9528 11.0863 19.9247 10.8051 17.8684H7.58511V18.2786C7.58511 21.0516 7.58511 23.8246 7.58511 26.5976C7.58511 27.0684 7.45965 27.2746 7.18207 27.2645C6.91674 27.2544 6.80786 27.0648 6.80786 26.6048C6.80786 25.1376 6.8021 23.671 6.81291 22.2067C6.82078 22.1008 6.79881 21.9948 6.74949 21.9007C6.70017 21.8067 6.62547 21.7283 6.53388 21.6746C4.94766 20.569 3.36457 19.4565 1.78461 18.337C0.331776 17.3125 -0.0597312 15.7558 0.739145 14.1725C1.9353 11.8047 3.14443 9.4434 4.32904 7.06912C4.78039 6.1657 5.46246 5.72372 6.47764 5.82538C6.53316 5.83043 6.5894 5.82538 6.64708 5.82538C6.76677 5.35889 6.85545 4.89889 7.00253 4.45547C7.78915 2.1021 9.47415 0.793475 11.8665 0.32482C13.1203 0.0789566 14.3799 0.126544 15.6243 0.347893C16.5674 0.515166 17.1759 1.12514 17.4636 2.05019C17.499 2.16339 17.615 2.31191 17.7174 2.33282C19.1183 2.62627 19.8884 3.56358 20.3131 4.85202C20.4198 5.17503 20.4861 5.51102 20.5596 5.7951C20.9475 5.82538 21.3268 5.81313 21.6858 5.89388C22.2136 6.0114 22.6073 6.351 22.8524 6.83119C24.1214 9.32876 25.3969 11.8242 26.6435 14.3297C27.3306 15.7126 26.9413 17.2685 25.7062 18.1914C25.0097 18.7127 24.2858 19.1965 23.5771 19.7019C23.355 19.8605 23.1444 19.8807 22.9865 19.6384C22.8286 19.3962 22.9339 19.2152 23.1545 19.0616C23.8039 18.6127 24.4504 18.1587 25.0941 17.6996C26.2174 16.9022 26.5072 15.7378 25.8872 14.5049C24.9708 12.6886 24.0493 10.8746 23.1163 9.03314L21.0816 10.199C21.1393 10.3194 21.1905 10.429 21.2446 10.5372L23.5057 15.0074C23.7184 15.4285 23.6888 15.5402 23.3002 15.8005C22.4516 16.3622 21.608 16.9253 20.7507 17.4812C20.5827 17.5908 20.4962 17.7025 20.4969 17.9181C20.5036 21.9173 20.5056 25.9165 20.5027 29.9157C20.5027 30.0051 20.5142 30.0952 20.5236 30.2264H26.058C26.1611 30.2264 26.2895 30.1904 26.3623 30.238C26.4971 30.3266 26.6651 30.4478 26.7019 30.5862C26.7596 30.8025 26.5945 30.9467 26.3724 30.977C26.2698 30.9859 26.1667 30.9876 26.0638 30.982H1.24457C0.755007 30.982 0.565382 30.8732 0.595665 30.5855C0.63532 30.1594 0.969146 30.225 1.24457 30.225C7.2371 30.225 13.2299 30.225 19.2229 30.225L19.7074 30.2264ZM9.43521 7.69424C9.43521 9.02161 9.43521 10.3259 9.43521 11.6302C9.43518 11.7676 9.44603 11.9048 9.46766 12.0405C9.81158 14.1573 11.7864 15.7746 13.8391 15.6231C16.1709 15.4508 17.9013 13.6548 17.9157 11.3851C17.9222 10.354 17.9063 9.32299 17.9229 8.29195C17.9287 7.95163 17.8912 7.69568 17.5429 7.51614C17.3194 7.40078 17.1269 7.18592 16.9762 6.97611C16.6525 6.52188 16.3641 6.0388 16.0541 5.56222C14.0497 6.80451 11.7446 7.23712 9.43521 7.69424ZM8.63634 10.6244V7.61709C8.63634 7.08498 8.69835 7.04028 9.2218 6.92997C10.472 6.66391 11.7287 6.41661 12.9609 6.0799C14.0518 5.78212 15.1175 5.38773 15.9935 4.61697C16.2437 4.40067 16.4982 4.49224 16.6424 4.81453C16.8335 5.22911 17.0108 5.65234 17.2387 6.04673C17.5098 6.51683 17.853 6.93213 18.3923 7.12824C18.6245 7.21116 18.6735 7.39502 18.672 7.62141C18.6663 8.48085 18.672 9.34029 18.672 10.199C18.677 10.2865 18.6869 10.3736 18.7016 10.46C19.14 10.1947 19.4017 9.81832 19.5935 9.28694C19.7103 8.96393 19.4637 8.77502 19.3707 8.53132C19.0859 7.78364 19.1666 7.0994 19.6728 6.46852C19.7449 6.37912 19.8386 6.23852 19.817 6.15272C19.6353 5.5204 19.4918 4.86356 19.2085 4.2781C18.853 3.54484 18.1911 3.14972 17.3677 3.07258C16.8738 3.02643 16.8133 2.9774 16.7606 2.47847C16.6885 1.77188 16.1045 1.16551 15.408 1.08043C14.4412 0.96291 13.4743 0.864132 12.4995 1.00833C11.2997 1.17849 10.1822 1.54476 9.24847 2.34869C8.2095 3.24274 7.71633 4.42879 7.4611 5.74175C7.40053 6.0525 7.42 6.29043 7.66658 6.53485C7.97445 6.842 8.0826 7.25586 8.09919 7.69712C8.11865 8.20182 7.8901 8.62433 7.67596 9.05478C7.62332 9.15932 7.56132 9.30136 7.5916 9.39725C7.76031 9.91926 8.05737 10.3519 8.63634 10.6244ZM4.20142 9.04324C4.15311 9.13264 4.11346 9.20186 4.07741 9.27252C3.18432 11.0361 2.29171 12.8004 1.39959 14.5654C0.801873 15.7537 1.10614 16.9282 2.20063 17.6989C3.62341 18.6997 5.04644 19.6995 6.46971 20.6983C6.55984 20.7618 6.65357 20.8187 6.76893 20.8944C6.78573 20.8431 6.79756 20.7902 6.80426 20.7365C6.80426 19.7747 6.81579 18.8122 6.79633 17.8525C6.79633 17.7285 6.66655 17.5699 6.55335 17.492C5.71265 16.9152 4.8597 16.3607 4.0118 15.7969C3.61885 15.5359 3.59001 15.4314 3.80198 15.0103C4.55375 13.5202 5.30649 12.0301 6.06018 10.54C6.11498 10.4312 6.16761 10.3237 6.22817 10.1961L4.20142 9.04324ZM20.1357 10.0325C19.5956 10.8018 19.5935 10.7975 18.809 11.2719C18.7696 11.3059 18.7375 11.3476 18.7148 11.3945C18.6921 11.4413 18.6793 11.4924 18.6771 11.5444C18.5913 13.1364 17.9128 14.414 16.6583 15.3939C16.5862 15.4523 16.4823 15.5381 16.4802 15.6195C16.4636 16.1055 16.4715 16.5922 16.4715 17.094C17.0166 17.094 17.5076 17.094 17.9986 17.094C18.6511 17.094 19.3447 17.2252 19.9453 17.045C20.5459 16.8647 21.047 16.3701 21.5921 16.0125C21.9807 15.7565 22.3686 15.4991 22.7688 15.2338L20.1357 10.0325ZM4.54174 15.2345C5.20146 15.6671 5.85758 16.05 6.45096 16.5093C7.01281 16.9612 7.72897 17.1756 8.44671 17.107C9.22901 17.0507 10.0185 17.094 10.8383 17.094C10.8383 16.8092 10.8138 16.5569 10.8433 16.3117C10.9082 15.7854 10.7424 15.4249 10.3134 15.0629C9.29029 14.1977 8.7827 13.0376 8.66157 11.7052C8.6522 11.6028 8.61038 11.437 8.54621 11.4168C7.9074 11.2099 7.45893 10.7751 7.08833 10.2026L4.54174 15.2345ZM15.682 15.9786C14.3265 16.5323 12.9703 16.5273 11.5932 15.9541C11.5932 16.6751 11.5932 17.3507 11.5932 18.0255C11.5909 18.1285 11.594 18.2315 11.6026 18.3341C11.7165 19.4156 12.5327 20.19 13.5998 20.2369C14.1035 20.2598 14.5971 20.0903 14.9805 19.7628C15.3639 19.4354 15.6085 18.9744 15.6647 18.4733C15.7534 17.66 15.682 16.8344 15.682 15.9786ZM6.5894 9.52415C6.83815 9.00142 7.10852 8.52483 7.29382 8.01725C7.48417 7.49668 7.16116 6.89392 6.64059 6.65959C6.14598 6.4368 5.50068 6.59902 5.21372 7.06479C4.96497 7.46856 4.76958 7.90477 4.53669 8.35323L6.5894 9.52415ZM22.7674 8.359C22.5806 7.98552 22.4133 7.65025 22.2446 7.31499C22.2092 7.24337 22.1702 7.17358 22.1278 7.10589C21.981 6.87888 21.7607 6.70909 21.5038 6.62485C21.2469 6.54062 20.9689 6.54702 20.7161 6.64301C20.184 6.8557 19.8256 7.43611 20.003 7.96822C20.1804 8.50032 20.4688 8.99421 20.719 9.52703L22.7674 8.359Z" fill="#262626"/>
</svg>
